<mxfile host="app.diagrams.net" modified="2023-11-22T11:24:26.962Z" agent="Mozilla/5.0 (Windows NT 10.0; Win64; x64) AppleWebKit/537.36 (KHTML, like Gecko) Chrome/119.0.0.0 Safari/537.36" version="22.1.3" etag="DXGivUIQnhpQr3XwI63A" type="github">
  <diagram name="Halaman-1" id="xBKdvptjG6iDfuVawHML">
    <mxGraphModel>
      <root>
        <mxCell id="0" />
        <mxCell id="1" parent="0" />
      </root>
    </mxGraphModel>
  </diagram>
</mxfile>
